<svg width="61" height="15" viewBox="0 0 61 15" fill="none" xmlns="http://www.w3.org/2000/svg">
<path d="M7.348 1.044C7.348 1.324 7.284 1.62 7.156 1.932C7.036 2.244 6.88 2.552 6.688 2.856C6.496 3.152 6.284 3.436 6.052 3.708C5.82 3.972 5.6 4.2 5.392 4.392C5.256 4.744 5.092 5.144 4.9 5.592C4.708 6.04 4.496 6.484 4.264 6.924C4.04 7.364 3.796 7.776 3.532 8.16C3.268 8.536 3 8.832 2.728 9.048C3.072 8.944 3.436 8.832 3.82 8.712C4.212 8.592 4.604 8.488 4.996 8.4C5.396 8.312 5.792 8.248 6.184 8.208C6.576 8.168 6.944 8.172 7.288 8.22C7.64 8.26 7.96 8.352 8.248 8.496C8.544 8.64 8.796 8.856 9.004 9.144L9.244 9.636L8.968 9.18C8.752 8.94 8.496 8.768 8.2 8.664C7.904 8.552 7.58 8.496 7.228 8.496C6.884 8.488 6.52 8.52 6.136 8.592C5.752 8.664 5.364 8.756 4.972 8.868C4.588 8.98 4.204 9.096 3.82 9.216C3.444 9.344 3.088 9.46 2.752 9.564C2.688 9.58 2.588 9.6 2.452 9.624C2.324 9.656 2.2 9.672 2.08 9.672C1.96 9.672 1.864 9.648 1.792 9.6C1.72 9.552 1.716 9.46 1.78 9.324C1.924 9.284 2.068 9.24 2.212 9.192C2.364 9.144 2.528 9.1 2.704 9.06C2.896 8.9 3.076 8.672 3.244 8.376C3.412 8.08 3.576 7.74 3.736 7.356C3.904 6.972 4.068 6.556 4.228 6.108C4.388 5.652 4.556 5.192 4.732 4.728C4.084 5.248 3.408 5.712 2.704 6.12C2 6.52 1.248 6.824 0.448 7.032C1.296 6.776 2.1 6.384 2.86 5.856C3.628 5.32 4.336 4.728 4.984 4.08C5.192 3.504 5.38 2.984 5.548 2.52C5.724 2.056 5.896 1.668 6.064 1.356C6.192 1.124 6.328 0.936 6.472 0.792C6.624 0.64 6.764 0.548 6.892 0.516C7.02 0.476 7.128 0.5 7.216 0.588C7.304 0.668 7.348 0.819999 7.348 1.044ZM5.752 3.564C5.864 3.436 5.996 3.252 6.148 3.012C6.308 2.772 6.452 2.52 6.58 2.256C6.708 1.992 6.808 1.736 6.88 1.488C6.96 1.24 6.976 1.044 6.928 0.9C6.84 0.98 6.748 1.112 6.652 1.296C6.564 1.48 6.468 1.696 6.364 1.944C6.268 2.184 6.168 2.448 6.064 2.736C5.96 3.016 5.856 3.292 5.752 3.564ZM7.56803 6.456C7.51203 6.192 7.42803 6.076 7.31603 6.108C7.21203 6.132 7.10403 6.228 6.99203 6.396C6.88003 6.556 6.77603 6.752 6.68003 6.984C6.58403 7.208 6.52403 7.392 6.50003 7.536C6.57203 7.488 6.67203 7.42 6.80003 7.332C6.92803 7.236 7.05203 7.136 7.17203 7.032C7.29203 6.92 7.39203 6.816 7.47203 6.72C7.56003 6.616 7.59203 6.528 7.56803 6.456ZM10.412 6.228C10.332 6.324 10.196 6.468 10.004 6.66C9.82003 6.844 9.61603 7.036 9.39203 7.236C9.16803 7.428 8.94003 7.604 8.70803 7.764C8.47603 7.916 8.27203 8.008 8.09603 8.04C7.92003 8.072 7.78803 8.024 7.70003 7.896C7.62003 7.76 7.62003 7.496 7.70003 7.104C7.56403 7.24 7.42803 7.368 7.29203 7.488C7.16403 7.608 7.04003 7.716 6.92003 7.812C6.80003 7.9 6.69203 7.972 6.59603 8.028C6.50003 8.076 6.42003 8.096 6.35603 8.088C6.16403 8.072 6.05203 7.976 6.02003 7.8C5.98803 7.624 6.00803 7.424 6.08003 7.2C6.15203 6.968 6.26403 6.736 6.41603 6.504C6.56803 6.264 6.73203 6.072 6.90803 5.928C7.09203 5.784 7.27203 5.716 7.44803 5.724C7.62403 5.724 7.77203 5.844 7.89203 6.084C7.95603 5.996 8.03203 5.896 8.12003 5.784C8.20803 5.664 8.29603 5.584 8.38403 5.544C8.41603 5.528 8.45203 5.524 8.49203 5.532C8.53203 5.54 8.56403 5.572 8.58803 5.628C8.60403 5.652 8.58403 5.728 8.52803 5.856C8.48003 5.976 8.42003 6.12 8.34803 6.288C8.27603 6.448 8.20403 6.62 8.13203 6.804C8.06803 6.98 8.02403 7.14 8.00003 7.284C7.98403 7.42 8.00003 7.524 8.04803 7.596C8.09603 7.668 8.20003 7.676 8.36003 7.62C8.50403 7.572 8.67603 7.488 8.87603 7.368C9.07603 7.24 9.27203 7.108 9.46403 6.972C9.66403 6.828 9.84803 6.688 10.016 6.552C10.192 6.416 10.324 6.308 10.412 6.228ZM25.6501 6.456C25.5941 6.192 25.5101 6.076 25.3981 6.108C25.2941 6.132 25.1861 6.228 25.0741 6.396C24.9621 6.556 24.8581 6.752 24.7621 6.984C24.6661 7.208 24.6061 7.392 24.5821 7.536C24.6541 7.488 24.7541 7.42 24.8821 7.332C25.0101 7.236 25.1341 7.136 25.2541 7.032C25.3741 6.92 25.4741 6.816 25.5541 6.72C25.6421 6.616 25.6741 6.528 25.6501 6.456ZM28.4941 6.228C28.4141 6.324 28.2781 6.468 28.0861 6.66C27.9021 6.844 27.6981 7.036 27.4741 7.236C27.2501 7.428 27.0221 7.604 26.7901 7.764C26.5581 7.916 26.3541 8.008 26.1781 8.04C26.0021 8.072 25.8701 8.024 25.7821 7.896C25.7021 7.76 25.7021 7.496 25.7821 7.104C25.6461 7.24 25.5101 7.368 25.3741 7.488C25.2461 7.608 25.1221 7.716 25.0021 7.812C24.8821 7.9 24.7741 7.972 24.6781 8.028C24.5821 8.076 24.5021 8.096 24.4381 8.088C24.2461 8.072 24.1341 7.976 24.1021 7.8C24.0701 7.624 24.0901 7.424 24.1621 7.2C24.2341 6.968 24.3461 6.736 24.4981 6.504C24.6501 6.264 24.8141 6.072 24.9901 5.928C25.1741 5.784 25.3541 5.716 25.5301 5.724C25.7061 5.724 25.8541 5.844 25.9741 6.084C26.0381 5.996 26.1141 5.896 26.2021 5.784C26.2901 5.664 26.3781 5.584 26.4661 5.544C26.4981 5.528 26.5341 5.524 26.5741 5.532C26.6141 5.54 26.6461 5.572 26.6701 5.628C26.6861 5.652 26.6661 5.728 26.6101 5.856C26.5621 5.976 26.5021 6.12 26.4301 6.288C26.3581 6.448 26.2861 6.62 26.2141 6.804C26.1501 6.98 26.1061 7.14 26.0821 7.284C26.0661 7.42 26.0821 7.524 26.1301 7.596C26.1781 7.668 26.2821 7.676 26.4421 7.62C26.5861 7.572 26.7581 7.488 26.9581 7.368C27.1581 7.24 27.3541 7.108 27.5461 6.972C27.7461 6.828 27.9301 6.688 28.0981 6.552C28.2741 6.416 28.4061 6.308 28.4941 6.228ZM28.7163 5.964C28.7003 6.004 28.6843 6.056 28.6683 6.12C28.6523 6.176 28.6323 6.24 28.6083 6.312C28.7843 6.16 28.9603 6.04 29.1363 5.952C29.3123 5.856 29.4723 5.796 29.6163 5.772C29.7603 5.748 29.8763 5.764 29.9643 5.82C30.0523 5.876 30.1043 5.976 30.1203 6.12C30.1203 6.152 30.1083 6.228 30.0843 6.348C30.0683 6.46 30.0443 6.56 30.0123 6.648C29.9803 6.736 29.9483 6.792 29.9163 6.816C29.8843 6.832 29.8643 6.76 29.8563 6.6C29.8323 6.392 29.7723 6.264 29.6763 6.216C29.5883 6.16 29.4763 6.164 29.3403 6.228C29.0843 6.348 28.8683 6.524 28.6923 6.756C28.5163 6.98 28.3723 7.208 28.2603 7.44C28.1563 7.68 28.0523 7.872 27.9483 8.016C27.8443 8.152 27.7283 8.172 27.6003 8.076C27.5843 8.06 27.5883 8.02 27.6123 7.956C27.6363 7.892 27.6723 7.812 27.7203 7.716C27.8643 7.404 27.9883 7.064 28.0923 6.696C28.1883 6.32 28.2723 5.972 28.3443 5.652C28.3443 5.636 28.3683 5.632 28.4163 5.64C28.4643 5.64 28.5123 5.656 28.5603 5.688C28.6163 5.712 28.6603 5.748 28.6923 5.796C28.7323 5.836 28.7403 5.892 28.7163 5.964ZM31.9632 6.492C31.8432 6.324 31.7152 6.236 31.5792 6.228C31.4512 6.212 31.3272 6.244 31.2072 6.324C31.0872 6.404 30.9792 6.516 30.8832 6.66C30.7872 6.804 30.7152 6.944 30.6672 7.08C30.6272 7.208 30.6112 7.32 30.6192 7.416C30.6352 7.504 30.6912 7.544 30.7872 7.536C30.8832 7.52 31.0272 7.436 31.2192 7.284C31.4112 7.124 31.6592 6.86 31.9632 6.492ZM32.2632 6.204C32.3352 6.148 32.4032 6.104 32.4672 6.072C32.5392 6.032 32.5952 6.016 32.6352 6.024C32.7792 6.048 32.8512 6.168 32.8512 6.384C32.8512 6.6 32.8072 6.876 32.7192 7.212C32.6312 7.548 32.5072 7.928 32.3472 8.352C32.1952 8.768 32.0392 9.192 31.8792 9.624C31.7192 10.056 31.5632 10.476 31.4112 10.884C31.2672 11.292 31.1552 11.648 31.0752 11.952C31.0032 12.264 30.9752 12.508 30.9912 12.684C31.0152 12.86 31.1112 12.932 31.2792 12.9C31.4072 12.876 31.5632 12.8 31.7472 12.672C31.9312 12.552 32.1272 12.4 32.3352 12.216C32.5432 12.04 32.7552 11.844 32.9712 11.628C33.1952 11.42 33.4072 11.212 33.6072 11.004C33.8072 10.796 33.9872 10.604 34.1472 10.428C34.3152 10.252 34.4512 10.108 34.5552 9.996C34.3632 10.228 34.1432 10.488 33.8952 10.776C33.6552 11.064 33.4032 11.344 33.1392 11.616C32.8832 11.896 32.6272 12.152 32.3712 12.384C32.1152 12.624 31.8792 12.812 31.6632 12.948C31.4552 13.084 31.2752 13.148 31.1232 13.14C30.9712 13.14 30.8632 13.044 30.7992 12.852C30.7432 12.66 30.7432 12.352 30.7992 11.928C30.8632 11.512 31.0032 10.948 31.2192 10.236C31.2832 9.996 31.3632 9.732 31.4592 9.444C31.5552 9.156 31.6552 8.864 31.7592 8.568C31.8712 8.264 31.9752 7.968 32.0712 7.68C32.1752 7.384 32.2592 7.108 32.3232 6.852C32.1392 7.052 31.9272 7.264 31.6872 7.488C31.4552 7.712 31.1992 7.896 30.9192 8.04C30.6872 8.152 30.5032 8.184 30.3672 8.136C30.2312 8.088 30.1392 7.992 30.0912 7.848C30.0352 7.704 30.0232 7.528 30.0552 7.32C30.0792 7.112 30.1352 6.904 30.2232 6.696C30.3032 6.488 30.4112 6.3 30.5472 6.132C30.6912 5.956 30.8512 5.832 31.0272 5.76C31.2032 5.688 31.3952 5.68 31.6032 5.736C31.8192 5.792 32.0392 5.948 32.2632 6.204ZM34.1444 6.312C34.0884 6.432 34.0284 6.568 33.9644 6.72C33.9084 6.864 33.8564 7.004 33.8084 7.14C33.7604 7.268 33.7244 7.384 33.7004 7.488C33.6844 7.584 33.6924 7.644 33.7244 7.668C33.7964 7.716 33.8844 7.696 33.9884 7.608C34.0924 7.512 34.2004 7.388 34.3124 7.236C34.4324 7.076 34.5524 6.9 34.6724 6.708C34.8004 6.516 34.9204 6.336 35.0324 6.168C35.1524 6 35.2604 5.864 35.3564 5.76C35.4604 5.656 35.5484 5.612 35.6204 5.628C35.7404 5.66 35.7964 5.756 35.7884 5.916C35.7884 6.068 35.7604 6.24 35.7044 6.432C35.6564 6.624 35.6004 6.82 35.5364 7.02C35.4804 7.212 35.4524 7.368 35.4524 7.488C35.4604 7.6 35.5204 7.66 35.6324 7.668C35.7444 7.676 35.9444 7.584 36.2324 7.392C36.5124 7.2 36.7724 7.004 37.0124 6.804C37.2604 6.604 37.4684 6.412 37.6364 6.228C37.5724 6.316 37.4444 6.468 37.2524 6.684C37.0604 6.892 36.8444 7.108 36.6044 7.332C36.3644 7.556 36.1204 7.756 35.8724 7.932C35.6244 8.1 35.4164 8.184 35.2484 8.184C35.1444 8.184 35.0724 8.14 35.0324 8.052C35.0004 7.956 34.9844 7.832 34.9844 7.68C34.9924 7.528 35.0124 7.364 35.0444 7.188C35.0764 7.004 35.1084 6.82 35.1404 6.636C35.0684 6.796 34.9684 6.964 34.8404 7.14C34.7124 7.308 34.5764 7.464 34.4324 7.608C34.2884 7.752 34.1444 7.876 34.0004 7.98C33.8564 8.076 33.7364 8.124 33.6404 8.124C33.4724 8.14 33.3564 8.108 33.2924 8.028C33.2204 7.94 33.1884 7.824 33.1964 7.68C33.1964 7.536 33.2284 7.372 33.2924 7.188C33.3484 7.004 33.4124 6.82 33.4844 6.636C33.5564 6.452 33.6284 6.284 33.7004 6.132C33.7724 5.972 33.8284 5.844 33.8684 5.748C33.9084 5.668 33.9564 5.636 34.0124 5.652C34.0684 5.66 34.1124 5.7 34.1444 5.772C34.1844 5.836 34.2044 5.92 34.2044 6.024C34.2124 6.12 34.1924 6.216 34.1444 6.312ZM37.9253 6.72C38.0933 6.656 38.2573 6.572 38.4173 6.468C38.5773 6.364 38.6853 6.244 38.7413 6.108C38.5893 6.14 38.4413 6.212 38.2973 6.324C38.1613 6.436 38.0373 6.568 37.9253 6.72ZM40.4693 6.228C40.4373 6.268 40.3733 6.336 40.2773 6.432C40.1893 6.528 40.0773 6.64 39.9413 6.768C39.8053 6.888 39.6533 7.02 39.4853 7.164C39.3173 7.308 39.1453 7.444 38.9693 7.572C38.7933 7.692 38.6173 7.8 38.4413 7.896C38.2653 7.984 38.1013 8.04 37.9493 8.064C37.6933 8.104 37.5133 8.052 37.4093 7.908C37.2973 7.764 37.2453 7.58 37.2533 7.356C37.2613 7.132 37.3253 6.896 37.4453 6.648C37.5573 6.4 37.7173 6.192 37.9253 6.024C38.0613 5.92 38.2013 5.836 38.3453 5.772C38.4893 5.7 38.6253 5.66 38.7533 5.652C38.8813 5.636 38.9893 5.652 39.0773 5.7C39.1653 5.748 39.2213 5.836 39.2453 5.964C39.2693 6.132 39.2253 6.288 39.1133 6.432C39.0013 6.576 38.8573 6.708 38.6813 6.828C38.5133 6.94 38.3333 7.036 38.1413 7.116C37.9573 7.196 37.8053 7.256 37.6853 7.296C37.6693 7.432 37.6853 7.54 37.7333 7.62C37.7813 7.7 37.8773 7.728 38.0213 7.704C38.2133 7.672 38.4213 7.604 38.6453 7.5C38.8693 7.388 39.0933 7.26 39.3173 7.116C39.5413 6.972 39.7533 6.82 39.9533 6.66C40.1613 6.5 40.3333 6.356 40.4693 6.228ZM43.3707 6.072C43.2987 6.16 43.2187 6.28 43.1307 6.432C43.0507 6.576 42.9787 6.728 42.9147 6.888C42.8507 7.048 42.7987 7.2 42.7587 7.344C42.7267 7.48 42.7267 7.584 42.7587 7.656C42.7987 7.744 42.8627 7.78 42.9507 7.764C43.0467 7.748 43.1547 7.696 43.2747 7.608C43.4027 7.52 43.5307 7.412 43.6587 7.284C43.7947 7.148 43.9227 7.008 44.0427 6.864C44.1707 6.72 44.2787 6.584 44.3667 6.456C44.4627 6.32 44.5307 6.208 44.5707 6.12C44.5867 6.064 44.6027 5.992 44.6187 5.904C44.6427 5.808 44.6587 5.748 44.6667 5.724C44.6907 5.676 44.7347 5.644 44.7987 5.628C44.8627 5.612 44.9267 5.616 44.9907 5.64C45.0547 5.664 45.1107 5.708 45.1587 5.772C45.2067 5.836 45.2307 5.92 45.2307 6.024C45.2227 6.112 45.2067 6.224 45.1827 6.36C45.1587 6.488 45.1307 6.624 45.0987 6.768C45.0747 6.912 45.0467 7.052 45.0147 7.188C44.9907 7.316 44.9707 7.424 44.9547 7.512C45.3147 7.256 45.6667 7.024 46.0107 6.816C46.3547 6.608 46.6947 6.412 47.0307 6.228C46.7027 6.412 46.3587 6.64 45.9987 6.912C45.6387 7.184 45.2707 7.46 44.8947 7.74C44.7907 8.18 44.6627 8.656 44.5107 9.168C44.3587 9.68 44.1907 10.192 44.0067 10.704C43.8227 11.224 43.6187 11.724 43.3947 12.204C43.1787 12.692 42.9507 13.12 42.7107 13.488C42.4707 13.856 42.2227 14.148 41.9667 14.364C41.7027 14.588 41.4387 14.7 41.1747 14.7C40.9747 14.7 40.8187 14.652 40.7067 14.556C40.5867 14.46 40.5027 14.336 40.4547 14.184C40.3987 14.04 40.3707 13.876 40.3707 13.692C40.3707 13.508 40.3867 13.324 40.4187 13.14C40.4427 12.956 40.4787 12.784 40.5267 12.624C40.5747 12.472 40.6187 12.344 40.6587 12.24C40.8267 11.84 41.0427 11.444 41.3067 11.052C41.5627 10.668 41.8547 10.292 42.1827 9.924C42.5027 9.556 42.8507 9.204 43.2267 8.868C43.6027 8.532 43.9907 8.212 44.3907 7.908C44.4387 7.732 44.4827 7.56 44.5227 7.392C44.5627 7.216 44.5947 7.044 44.6187 6.876C44.4827 7.06 44.3347 7.232 44.1747 7.392C44.0227 7.552 43.8627 7.696 43.6947 7.824C43.5267 7.944 43.3587 8.04 43.1907 8.112C43.0307 8.184 42.8827 8.22 42.7467 8.22C42.5067 8.22 42.3467 8.128 42.2667 7.944C42.1867 7.76 42.1667 7.536 42.2067 7.272C42.2387 7.008 42.3187 6.736 42.4467 6.456C42.5747 6.176 42.7347 5.944 42.9267 5.76C43.0067 5.68 43.0787 5.644 43.1427 5.652C43.2067 5.66 43.2587 5.692 43.2987 5.748C43.3387 5.804 43.3627 5.868 43.3707 5.94C43.3867 6.004 43.3867 6.048 43.3707 6.072ZM44.3307 8.184C44.1387 8.336 43.9027 8.556 43.6227 8.844C43.3427 9.124 43.0507 9.44 42.7467 9.792C42.4507 10.152 42.1627 10.532 41.8827 10.932C41.6027 11.34 41.3707 11.74 41.1867 12.132C40.9947 12.532 40.8707 12.912 40.8147 13.272C40.7587 13.632 40.8027 13.944 40.9467 14.208C40.9867 14.296 41.0587 14.344 41.1627 14.352C41.2667 14.36 41.4107 14.3 41.5947 14.172C41.8667 13.972 42.1347 13.656 42.3987 13.224C42.6627 12.8 42.9147 12.312 43.1547 11.76C43.3947 11.208 43.6147 10.62 43.8147 9.996C44.0147 9.38 44.1867 8.776 44.3307 8.184ZM49.562 6.72C49.73 6.656 49.894 6.572 50.054 6.468C50.214 6.364 50.322 6.244 50.378 6.108C50.226 6.14 50.078 6.212 49.934 6.324C49.798 6.436 49.674 6.568 49.562 6.72ZM52.106 6.228C52.074 6.268 52.01 6.336 51.914 6.432C51.826 6.528 51.714 6.64 51.578 6.768C51.442 6.888 51.29 7.02 51.122 7.164C50.954 7.308 50.782 7.444 50.606 7.572C50.43 7.692 50.254 7.8 50.078 7.896C49.902 7.984 49.738 8.04 49.586 8.064C49.33 8.104 49.15 8.052 49.046 7.908C48.934 7.764 48.882 7.58 48.89 7.356C48.898 7.132 48.962 6.896 49.082 6.648C49.194 6.4 49.354 6.192 49.562 6.024C49.698 5.92 49.838 5.836 49.982 5.772C50.126 5.7 50.262 5.66 50.39 5.652C50.518 5.636 50.626 5.652 50.714 5.7C50.802 5.748 50.858 5.836 50.882 5.964C50.906 6.132 50.862 6.288 50.75 6.432C50.638 6.576 50.494 6.708 50.318 6.828C50.15 6.94 49.97 7.036 49.778 7.116C49.594 7.196 49.442 7.256 49.322 7.296C49.306 7.432 49.322 7.54 49.37 7.62C49.418 7.7 49.514 7.728 49.658 7.704C49.85 7.672 50.058 7.604 50.282 7.5C50.506 7.388 50.73 7.26 50.954 7.116C51.178 6.972 51.39 6.82 51.59 6.66C51.798 6.5 51.97 6.356 52.106 6.228ZM52.9193 6.12C52.8473 6.056 52.7433 6.032 52.6073 6.048C52.4793 6.056 52.3633 6.096 52.2593 6.168C52.1553 6.232 52.0873 6.324 52.0553 6.444C52.0313 6.556 52.0873 6.68 52.2233 6.816C52.2393 6.832 52.2513 6.848 52.2593 6.864C52.2753 6.88 52.2913 6.896 52.3073 6.912C52.5073 6.856 52.6873 6.812 52.8473 6.78C53.0073 6.74 53.1593 6.7 53.3033 6.66C53.4473 6.62 53.5913 6.572 53.7353 6.516C53.8873 6.46 54.0513 6.384 54.2273 6.288C54.0353 6.416 53.8633 6.52 53.7113 6.6C53.5593 6.672 53.4153 6.736 53.2793 6.792C53.1513 6.84 53.0193 6.884 52.8833 6.924C52.7553 6.964 52.6193 7.008 52.4753 7.056C52.5553 7.128 52.6353 7.208 52.7153 7.296C52.8033 7.384 52.8713 7.48 52.9193 7.584C52.9673 7.688 52.9913 7.8 52.9913 7.92C52.9913 8.04 52.9473 8.168 52.8593 8.304C52.7153 8.528 52.5233 8.652 52.2833 8.676C52.0433 8.7 51.8233 8.66 51.6233 8.556C51.4153 8.452 51.2593 8.304 51.1553 8.112C51.0513 7.912 51.0593 7.704 51.1793 7.488C51.2193 7.4 51.2993 7.324 51.4193 7.26C51.5393 7.188 51.6833 7.12 51.8513 7.056C51.7073 6.872 51.6393 6.696 51.6473 6.528C51.6473 6.36 51.6953 6.212 51.7913 6.084C51.8873 5.956 52.0153 5.856 52.1753 5.784C52.3433 5.712 52.5113 5.68 52.6793 5.688C52.8473 5.704 52.9633 5.736 53.0273 5.784C53.0913 5.832 53.1233 5.88 53.1233 5.928C53.1233 5.976 53.0993 6.02 53.0513 6.06C53.0113 6.1 52.9673 6.12 52.9193 6.12ZM52.0433 7.212C52.0193 7.228 51.9993 7.24 51.9833 7.248C51.9673 7.248 51.9513 7.256 51.9353 7.272C51.6713 7.4 51.5153 7.532 51.4673 7.668C51.4193 7.796 51.4353 7.908 51.5153 8.004C51.5873 8.1 51.7033 8.168 51.8633 8.208C52.0233 8.248 52.1793 8.24 52.3313 8.184C52.4593 8.128 52.5273 8.056 52.5353 7.968C52.5513 7.88 52.5313 7.792 52.4753 7.704C52.4273 7.608 52.3593 7.52 52.2713 7.44C52.1833 7.352 52.1073 7.276 52.0433 7.212ZM55.4473 3.984C55.4313 4.04 55.3993 4.112 55.3513 4.2C55.3113 4.288 55.2713 4.384 55.2313 4.488C56.1193 4.448 56.9513 4.392 57.7273 4.32C58.5033 4.24 59.2833 4.148 60.0673 4.044C59.1633 4.252 58.3113 4.428 57.5113 4.572C56.7193 4.708 55.9233 4.792 55.1233 4.824C54.9793 5.2 54.8193 5.596 54.6433 6.012C54.4673 6.42 54.3073 6.812 54.1633 7.188C54.0273 7.556 53.9233 7.884 53.8513 8.172C53.7793 8.452 53.7793 8.648 53.8513 8.76C53.9233 8.88 54.0513 8.932 54.2353 8.916C54.4193 8.9 54.6153 8.856 54.8233 8.784C55.0313 8.712 55.2273 8.632 55.4113 8.544C55.5953 8.456 55.7193 8.396 55.7833 8.364C55.6873 8.428 55.5553 8.512 55.3873 8.616C55.2193 8.712 55.0433 8.804 54.8593 8.892C54.6753 8.972 54.4913 9.032 54.3073 9.072C54.1233 9.112 53.9673 9.1 53.8393 9.036C53.6953 8.972 53.6033 8.86 53.5633 8.7C53.5153 8.54 53.5033 8.348 53.5273 8.124C53.5513 7.9 53.6073 7.652 53.6953 7.38C53.7753 7.108 53.8673 6.828 53.9713 6.54C54.0833 6.252 54.1993 5.964 54.3193 5.676C54.4473 5.38 54.5633 5.1 54.6673 4.836C53.9393 4.788 53.2433 4.716 52.5793 4.62C52.4753 4.604 52.3953 4.572 52.3393 4.524C52.2833 4.476 52.2713 4.38 52.3033 4.236C52.6633 4.308 53.0633 4.372 53.5033 4.428C53.9353 4.484 54.3673 4.504 54.7993 4.488C54.8633 4.32 54.9193 4.164 54.9673 4.02C55.0233 3.868 55.0593 3.74 55.0753 3.636C55.0993 3.628 55.1353 3.628 55.1833 3.636C55.2393 3.636 55.2913 3.652 55.3393 3.684C55.3873 3.708 55.4233 3.748 55.4473 3.804C55.4713 3.852 55.4713 3.912 55.4473 3.984Z" fill="black"/>
<path d="M12.8784 2.46C13.1024 2.22 13.3664 1.976 13.6704 1.728C13.9824 1.472 14.2944 1.256 14.6064 1.08C14.9264 0.904 15.2304 0.783999 15.5184 0.719999C15.8144 0.656 16.0544 0.688 16.2384 0.816C16.4704 0.984 16.5824 1.228 16.5744 1.548C16.5744 1.868 16.4944 2.236 16.3344 2.652C16.1824 3.06 15.9784 3.5 15.7224 3.972C15.4664 4.436 15.2064 4.896 14.9424 5.352C14.6784 5.8 14.4304 6.224 14.1984 6.624C13.9744 7.024 13.8144 7.364 13.7184 7.644C14.0224 7.236 14.3704 6.784 14.7624 6.288C15.1544 5.792 15.5624 5.3 15.9864 4.812C16.4104 4.316 16.8344 3.844 17.2584 3.396C17.6824 2.948 18.0784 2.568 18.4464 2.256C18.8144 1.936 19.1384 1.708 19.4184 1.572C19.6984 1.428 19.9064 1.416 20.0424 1.536C20.1624 1.632 20.1984 1.836 20.1504 2.148C20.1104 2.46 20.0264 2.82 19.8984 3.228C19.7784 3.636 19.6264 4.064 19.4424 4.512C19.2664 4.96 19.1024 5.372 18.9504 5.748C19.2384 5.34 19.5704 4.916 19.9464 4.476C20.3304 4.036 20.7224 3.62 21.1224 3.228C21.5304 2.828 21.9344 2.472 22.3344 2.16C22.7344 1.84 23.1024 1.6 23.4384 1.44C23.8224 1.248 24.1144 1.16 24.3144 1.176C24.5144 1.184 24.6504 1.26 24.7224 1.404C24.7944 1.54 24.8184 1.724 24.7944 1.956C24.7704 2.18 24.7224 2.408 24.6504 2.64C24.5864 2.872 24.5144 3.092 24.4344 3.3C24.3544 3.5 24.2944 3.648 24.2544 3.744C24.2064 3.856 24.1184 4.036 23.9904 4.284C23.8704 4.532 23.7264 4.824 23.5584 5.16C23.3984 5.496 23.2184 5.864 23.0184 6.264C22.8264 6.656 22.6344 7.056 22.4424 7.464C22.2504 7.872 22.0664 8.272 21.8904 8.664C21.7224 9.048 21.5744 9.4 21.4464 9.72C21.3264 10.04 21.2384 10.312 21.1824 10.536C21.1264 10.76 21.1184 10.908 21.1584 10.98C21.2064 11.068 21.3064 11.088 21.4584 11.04C21.6184 11 21.8064 10.916 22.0224 10.788C22.2464 10.66 22.4904 10.5 22.7544 10.308C23.0184 10.124 23.2784 9.928 23.5344 9.72C23.7984 9.52 24.0504 9.32 24.2904 9.12C24.5304 8.928 24.7384 8.76 24.9144 8.616C24.7864 8.728 24.5984 8.896 24.3504 9.12C24.1024 9.344 23.8304 9.576 23.5344 9.816C23.2384 10.064 22.9304 10.304 22.6104 10.536C22.2984 10.768 22.0104 10.948 21.7464 11.076C21.4824 11.212 21.2624 11.276 21.0864 11.268C20.9104 11.26 20.8104 11.14 20.7864 10.908C20.7704 10.74 20.8184 10.472 20.9304 10.104C21.0424 9.736 21.1904 9.316 21.3744 8.844C21.5584 8.364 21.7664 7.86 21.9984 7.332C22.2304 6.804 22.4544 6.296 22.6704 5.808C22.8944 5.312 23.0944 4.868 23.2704 4.476C23.4464 4.076 23.5784 3.768 23.6664 3.552C23.6744 3.528 23.7064 3.46 23.7624 3.348C23.8184 3.228 23.8784 3.092 23.9424 2.94C24.0064 2.78 24.0664 2.616 24.1224 2.448C24.1784 2.272 24.2144 2.116 24.2304 1.98C24.2544 1.844 24.2464 1.74 24.2064 1.668C24.1664 1.596 24.0824 1.58 23.9544 1.62C23.6984 1.692 23.4024 1.844 23.0664 2.076C22.7384 2.3 22.3944 2.568 22.0344 2.88C21.6824 3.192 21.3264 3.536 20.9664 3.912C20.6064 4.288 20.2704 4.664 19.9584 5.04C19.6544 5.408 19.3824 5.764 19.1424 6.108C18.9104 6.444 18.7424 6.732 18.6384 6.972C18.6224 6.972 18.5944 6.968 18.5544 6.96C18.5224 6.944 18.4904 6.92 18.4584 6.888C18.4264 6.856 18.4064 6.812 18.3984 6.756C18.3904 6.692 18.4144 6.608 18.4704 6.504C18.5184 6.424 18.5664 6.336 18.6144 6.24C18.6704 6.144 18.7304 6.052 18.7944 5.964C18.9224 5.612 19.0624 5.228 19.2144 4.812C19.3664 4.396 19.4984 4.004 19.6104 3.636C19.7304 3.26 19.8144 2.936 19.8624 2.664C19.9184 2.384 19.9104 2.2 19.8384 2.112C19.7664 2.024 19.6224 2.052 19.4064 2.196C19.1904 2.332 18.9264 2.548 18.6144 2.844C18.3024 3.132 17.9544 3.48 17.5704 3.888C17.1944 4.296 16.8104 4.728 16.4184 5.184C16.0264 5.64 15.6384 6.1 15.2544 6.564C14.8784 7.02 14.5344 7.448 14.2224 7.848C13.9184 8.248 13.6584 8.596 13.4424 8.892C13.2264 9.188 13.0864 9.396 13.0224 9.516C12.9904 9.516 12.9464 9.504 12.8904 9.48C12.8424 9.456 12.7984 9.42 12.7584 9.372C12.7264 9.324 12.7064 9.264 12.6984 9.192C12.6984 9.12 12.7344 9.032 12.8064 8.928C12.8704 8.84 12.9384 8.736 13.0104 8.616C13.0824 8.488 13.1744 8.36 13.2864 8.232C13.3744 8.048 13.4544 7.864 13.5264 7.68C13.6064 7.496 13.6904 7.308 13.7784 7.116C13.9304 6.788 14.1224 6.396 14.3544 5.94C14.5864 5.476 14.8184 5.004 15.0504 4.524C15.2824 4.036 15.4944 3.568 15.6864 3.12C15.8784 2.664 16.0104 2.284 16.0824 1.98C16.1704 1.58 16.1624 1.316 16.0584 1.188C15.9544 1.052 15.7904 1.008 15.5664 1.056C15.3424 1.104 15.0824 1.216 14.7864 1.392C14.4984 1.568 14.2144 1.768 13.9344 1.992C13.6624 2.216 13.4184 2.436 13.2024 2.652C12.9864 2.868 12.8424 3.04 12.7704 3.168C12.6104 3.2 12.5224 3.188 12.5064 3.132C12.4824 3.076 12.4944 3.004 12.5424 2.916C12.5824 2.828 12.6384 2.74 12.7104 2.652C12.7904 2.564 12.8464 2.5 12.8784 2.46Z" fill="#4E0786"/>
</svg>
